<svg version="1.0" xmlns="http://www.w3.org/2000/svg" width="600.000000pt" height="331.000000pt" viewBox="0 0 600.000000 331.000000" preserveAspectRatio="xMidYMid meet" style="width: 1140.54px; height: auto;"> <g transform="translate(0.000000,331.000000) scale(0.100000,-0.100000)" fill="#000000" stroke="none" class=""> <path d="M1737 2133 c-4 -3 -7 -11 -7 -17 0 -6 5 -5 12 2 6 6 9 14 7 17 -3 3 -9 2 -12 -2z"></path> <path d="M1757 2117 c-3 -8 1 -14 8 -14 7 0 11 6 8 14 -3 7 -6 13 -8 13 -2 0 -5 -6 -8 -13z"></path> <path d="M1490 2099 c-13 -6 -26 -12 -28 -14 -8 -7 18 -43 35 -47 15 -4 18 1 18 34 0 21 0 38 0 37 0 0 -11 -5 -25 -10z m15 -27 c0 -18 -20 -15 -23 4 -3 10 1 15 10 12 7 -3 13 -10 13 -16z"></path> <path d="M1640 2096 c0 -12 -5 -16 -14 -13 -11 4 -13 1 -9 -10 4 -11 2 -14 -5 -9 -8 4 -10 2 -6 -7 3 -8 -1 -21 -9 -29 -8 -8 -18 -24 -21 -36 -5 -15 -18 -25 -38 -29 -21 -4 -26 -8 -16 -14 11 -7 10 -9 -1 -9 -8 0 -11 -3 -8 -7 4 -3 16 2 27 12 26 23 25 18 -4 -37 -16 -31 -21 -50 -15 -61 8 -13 5 -15 -12 -12 -12 2 -28 12 -36 22 -8 10 -12 12 -8 6 3 -7 1 -13 -5 -13 -6 0 -15 -11 -20 -25 -5 -14 -14 -25 -20 -25 -6 0 -8 4 -5 10 3 5 0 7 -8 4 -8 -3 -18 -1 -21 4 -3 6 8 15 24 21 17 5 30 12 30 15 0 3 -8 2 -17 -1 -12 -5 -15 -2 -10 10 3 9 2 17 -3 17 -6 0 -10 -9 -10 -21 0 -17 -5 -19 -32 -16 -19 2 -32 9 -30 16 1 7 -2 10 -8 6 -18 -11 -11 -21 40 -48 49 -26 80 -27 80 -2 0 14 25 27 34 18 12 -12 6 -33 -10 -33 -10 0 -14 -6 -10 -15 6 -17 -19 -45 -41 -45 -13 0 -13 3 -3 15 18 22 -1 18 -30 -6 l-25 -20 43 3 c23 2 42 0 42 -4 0 -5 -6 -8 -14 -8 -8 0 -13 -8 -12 -17 0 -10 -4 -18 -11 -18 -6 0 -15 -4 -20 -9 -5 -5 -3 -6 5 -2 8 5 11 0 9 -16 -4 -23 -12 -27 -25 -12 -4 4 0 3 8 -1 13 -8 13 -6 2 7 -8 9 -20 14 -28 11 -8 -3 -14 -1 -14 5 0 6 5 12 11 14 8 3 6 10 -5 21 -23 23 -42 22 -25 0 11 -15 11 -16 -1 -5 -8 6 -18 12 -23 12 -4 0 -5 -6 -1 -12 4 -7 4 -10 -1 -6 -4 4 -14 0 -21 -10 -11 -14 -15 -15 -23 -3 -5 8 -7 20 -4 26 2 7 -3 20 -12 29 -9 9 -15 22 -12 29 3 7 -1 21 -9 32 -8 10 -14 14 -14 8 0 -7 4 -14 10 -18 13 -8 0 -36 -14 -29 -6 3 1 -5 17 -18 29 -25 39 -50 10 -27 -15 13 -15 12 0 -11 16 -25 16 -26 -13 -44 -27 -15 -31 -16 -36 -2 -3 9 -12 16 -20 16 -8 0 -14 6 -14 13 0 6 -7 -1 -15 -16 -11 -21 -12 -34 -5 -48 14 -25 46 -24 60 2 11 20 13 20 31 3 15 -14 21 -14 34 -4 8 7 12 17 9 22 -4 6 -10 5 -15 -3 -4 -7 -11 -10 -15 -6 -4 4 0 15 9 24 11 11 17 13 17 5 0 -7 6 -12 14 -12 18 0 13 -32 -9 -67 -9 -13 -13 -29 -9 -35 8 -13 46 78 45 110 -1 25 26 31 35 7 4 -8 12 -15 19 -15 20 0 29 -20 16 -33 -6 -6 -11 -15 -11 -21 0 -5 7 -1 16 10 15 19 15 19 5 -1 -16 -35 -71 -72 -85 -58 -3 3 4 24 15 46 14 27 23 36 29 27 5 -7 10 -8 14 -2 5 9 -14 22 -33 22 -7 0 -36 -78 -34 -90 1 -3 -5 -11 -13 -18 -8 -7 -14 -9 -14 -3 0 14 -29 21 -36 9 -4 -7 -3 -8 4 -4 7 4 12 2 12 -4 0 -6 -6 -13 -14 -16 -17 -7 -14 -34 5 -44 20 -11 62 7 53 22 -6 9 -3 9 9 -1 18 -15 23 -26 7 -16 -5 3 -10 -1 -10 -10 0 -21 -27 -75 -52 -102 -11 -12 -21 -33 -22 -46 0 -14 -3 -24 -7 -22 -3 2 -10 -9 -16 -24 -14 -39 5 -66 38 -51 29 12 58 30 77 48 8 7 21 11 29 8 9 -4 11 -2 7 6 -5 8 -2 9 9 5 10 -3 17 -2 17 3 0 6 5 10 11 10 6 0 8 -7 5 -16 -3 -8 -2 -12 3 -9 5 3 12 1 16 -5 3 -5 15 -10 26 -10 11 0 22 -6 25 -14 5 -14 28 -16 40 -3 4 4 0 7 -9 7 -10 0 -17 7 -17 15 0 17 12 19 26 5 6 -6 10 -3 10 9 0 12 -6 17 -17 14 -9 -3 -20 1 -25 8 -5 9 -2 10 12 5 16 -6 17 -5 6 6 -11 11 -17 8 -36 -15 -19 -23 -25 -26 -34 -14 -14 17 -6 27 21 27 14 0 17 5 13 16 -5 13 -1 15 19 12 13 -3 22 -2 20 3 -5 7 52 25 67 21 4 -1 4 6 1 15 -5 12 -2 15 10 10 18 -7 33 8 17 18 -14 9 -12 45 3 45 9 0 9 2 -1 8 -19 13 11 78 46 97 26 15 26 16 2 9 -14 -4 -21 -3 -17 2 4 4 21 9 38 10 22 2 29 -2 25 -12 -3 -7 0 -16 6 -20 7 -5 8 -2 3 6 -5 9 -4 11 3 6 7 -4 12 -14 12 -22 0 -8 4 -14 10 -14 6 0 6 -9 1 -22 -5 -14 -16 -22 -27 -21 -15 2 -14 0 4 -9 27 -13 28 -24 5 -37 -16 -9 -16 -10 -2 -11 18 0 33 26 23 41 -3 5 0 17 5 26 9 16 11 15 12 -7 1 -14 2 -32 3 -40 1 -8 -2 -22 -6 -31 -9 -20 6 -44 22 -34 9 5 11 4 6 -3 -4 -7 -2 -12 5 -12 7 0 20 -7 30 -16 13 -12 22 -13 38 -5 26 14 31 14 31 -4 0 -8 3 -14 8 -13 17 3 61 -15 56 -23 -3 -5 -2 -9 3 -8 4 1 18 -2 31 -6 17 -6 20 -11 12 -21 -9 -9 -6 -15 8 -23 11 -6 22 -7 26 -4 9 9 46 11 40 2 -8 -13 54 -21 76 -9 11 6 26 8 33 4 9 -5 9 -3 -1 7 -10 11 -16 11 -33 1 -17 -11 -24 -10 -47 6 -58 40 -168 95 -241 122 l-76 28 -3 47 c-6 89 -63 164 -115 151 -39 -10 -78 -76 -84 -144 -5 -57 -7 -60 -36 -66 -36 -7 -202 -85 -269 -126 -26 -16 -48 -28 -48 -27 0 2 70 131 155 287 85 156 155 287 155 292 0 11 -4 13 78 -30 35 -18 69 -31 75 -28 8 3 8 5 -1 5 -7 1 -10 5 -7 11 3 5 0 7 -8 4 -14 -5 -105 63 -106 79 -1 4 25 59 58 122 38 74 55 118 50 127 -7 10 -9 8 -9 -6z m-465 -466 c0 -22 -29 -18 -33 3 -3 14 1 18 15 15 10 -2 18 -10 18 -18z m156 -100 c-13 -11 -18 -20 -12 -20 7 0 9 -5 6 -10 -5 -8 -11 -7 -20 0 -16 13 -39 4 -30 -11 4 -5 -6 -9 -20 -9 -35 0 -31 34 5 36 13 1 26 7 28 13 2 6 8 9 13 6 5 -4 17 -1 26 4 28 16 30 12 4 -9z m674 -280 c-3 -5 -13 -6 -21 -3 -12 4 -13 8 -3 14 15 9 32 2 24 -11z"></path> <path d="M1663 2078 c-2 -21 69 -163 184 -372 23 -43 36 -73 28 -66 -14 11 -15 6 -9 -46 3 -32 8 -65 10 -73 2 -7 -1 -20 -7 -27 -14 -17 -3 -34 23 -34 11 0 42 -12 69 -27 42 -23 56 -38 95 -110 42 -77 64 -96 64 -55 0 11 3 13 8 6 8 -14 25 2 30 26 2 13 0 13 -10 0 -14 -16 -49 -26 -47 -13 4 21 -2 33 -13 27 -7 -4 -8 -3 -4 4 4 7 13 12 21 12 7 0 12 8 10 18 -1 9 2 24 8 32 6 8 8 12 3 8 -5 -4 -18 -1 -28 7 -11 7 -27 11 -34 8 -10 -4 -12 0 -8 13 4 12 3 15 -3 7 -6 -8 -14 -8 -33 2 -14 7 -24 17 -23 21 2 5 -5 9 -15 9 -9 1 -31 5 -49 9 -26 7 -33 15 -42 51 -18 73 -15 104 13 111 13 3 32 5 42 3 33 -4 54 12 54 40 0 17 -3 22 -8 13 -6 -9 -12 -6 -20 13 -10 22 -9 25 8 25 11 0 20 -6 20 -12 0 -9 4 -8 10 2 16 25 11 32 -17 25 -41 -10 -47 -20 -29 -46 20 -29 20 -46 1 -46 -8 0 -12 4 -9 8 3 5 -1 21 -9 36 l-14 27 -13 -25 c-13 -23 -12 -23 6 -9 18 14 18 14 5 -2 -14 -18 -41 -25 -41 -10 0 4 7 17 15 29 15 21 14 22 -20 29 -19 3 -35 11 -35 16 0 6 9 8 20 5 11 -3 18 -1 14 4 -3 5 -17 9 -31 9 -20 0 -24 4 -20 20 3 12 -1 24 -11 30 -10 5 -13 10 -9 10 5 0 -1 13 -12 29 -12 16 -21 32 -21 36 0 4 -10 21 -22 38 -13 18 -16 28 -7 23 7 -4 5 0 -5 8 -11 9 -21 23 -22 33 -2 9 -9 20 -16 25 -9 7 -8 8 6 4 15 -5 17 -4 7 8 -9 10 -9 16 -1 21 13 8 23 0 26 -20 1 -8 -3 -15 -9 -15 -21 0 4 -13 30 -16 22 -2 24 -1 12 6 -9 6 -20 22 -23 36 -6 23 -11 26 -37 20 -25 -5 -31 -2 -39 19 -12 31 -15 31 -17 3z m231 -367 c3 -5 0 -13 -7 -19 -10 -8 -13 -6 -13 9 0 20 11 25 20 10z m188 -329 c6 2 14 -5 16 -14 5 -26 -13 -22 -45 8 -22 22 -24 24 -6 15 12 -6 28 -10 35 -9z"></path> <path d="M1823 2093 c-15 -5 -16 -22 -4 -41 12 -20 61 -5 54 16 -10 27 -26 35 -50 25z m37 -23 c0 -13 -19 -22 -30 -15 -14 9 0 34 16 28 8 -3 14 -9 14 -13z"></path> <path d="M1933 2073 c22 -6 22 -12 -5 -35 -32 -28 -77 -50 -88 -43 -14 9 -50 -13 -50 -31 0 -9 -5 -12 -12 -8 -10 6 -10 4 0 -7 17 -19 15 -34 -3 -19 -13 11 -14 10 -9 -4 9 -24 28 -14 32 17 2 16 9 27 19 27 19 0 133 62 133 72 0 5 9 8 20 8 36 0 21 -14 -51 -50 -63 -31 -108 -63 -66 -47 10 3 17 2 17 -2 0 -11 131 -52 142 -45 4 3 8 0 8 -7 0 -8 -10 -9 -30 -5 -17 3 -29 2 -26 -2 3 -5 -8 -9 -24 -9 -20 0 -32 6 -36 19 -3 10 -10 15 -16 12 -6 -4 -5 -10 3 -15 11 -7 11 -9 -2 -9 -9 0 -23 8 -30 17 -10 11 -10 14 -1 9 6 -4 12 -3 12 2 0 14 -27 23 -46 15 -8 -3 -13 -12 -10 -20 4 -9 1 -12 -7 -8 -6 4 -4 0 6 -8 9 -8 17 -20 17 -27 0 -9 -6 -7 -20 5 -12 11 -20 13 -20 6 0 -6 7 -14 15 -17 8 -3 17 -15 21 -26 11 -35 22 0 13 41 -13 55 -11 59 10 21 18 -34 20 -35 72 -31 30 1 74 10 98 18 36 12 45 12 52 1 12 -19 -8 -35 -29 -22 -11 7 -26 8 -41 2 -14 -5 -50 -11 -80 -15 -31 -3 -57 -7 -59 -8 -2 -1 0 -14 4 -29 5 -22 8 -24 21 -11 17 17 58 21 47 4 -4 -7 1 -7 15 1 17 9 20 15 11 24 -8 11 -3 15 22 20 51 10 55 -8 13 -60 -36 -43 -39 -45 -52 -28 -7 10 -13 12 -13 5 0 -7 -4 -10 -9 -7 -5 4 -8 -2 -7 -11 3 -18 26 -31 26 -14 0 6 6 8 14 5 8 -3 31 2 51 12 44 21 54 12 31 -27 -10 -17 -15 -33 -12 -36 3 -4 6 -1 6 5 0 7 5 12 10 12 14 0 12 -27 -2 -33 -8 -3 -6 -6 5 -6 9 -1 17 -5 17 -11 0 -22 40 -9 46 15 3 14 13 25 20 25 20 0 29 27 15 44 -6 7 -7 17 -3 21 4 5 1 4 -7 0 -10 -6 -13 -4 -9 6 4 10 -1 15 -13 16 -17 2 -18 0 -3 -14 14 -14 13 -18 -12 -44 -26 -27 -44 -30 -44 -8 0 6 5 7 12 3 6 -4 8 -3 5 2 -3 6 -2 16 3 24 5 9 5 19 -1 26 -7 8 -6 14 1 19 8 5 8 11 -1 21 -8 10 -8 14 0 14 6 0 10 3 9 8 0 4 2 15 6 25 5 9 5 25 0 35 -4 9 -7 19 -6 22 0 3 -8 6 -18 6 -10 0 -17 -4 -14 -7 2 -4 -9 -7 -26 -7 -23 1 -27 4 -19 14 7 8 7 14 -1 19 -6 4 -9 1 -8 -7 4 -16 -52 -14 -62 2 -4 6 -13 8 -22 5 -8 -3 -21 2 -29 11 -13 15 -11 16 11 10 20 -6 22 -5 10 4 -12 10 -11 11 8 7 12 -3 20 -2 17 2 -2 5 7 13 21 20 31 14 37 14 29 1 -3 -5 -1 -10 4 -10 11 0 13 8 15 60 2 23 -2 25 -39 26 -22 0 -32 -1 -22 -3z m121 -244 c13 -27 13 -30 1 -25 -10 3 -15 -1 -16 -12 0 -14 -2 -14 -8 3 -5 12 -4 23 2 26 5 4 7 14 4 23 -11 28 1 17 17 -15z m-99 -8 c-6 -5 -25 10 -25 20 0 5 6 4 14 -3 8 -7 12 -15 11 -17z m-65 9 c0 -5 -4 -10 -10 -10 -5 0 -10 5 -10 10 0 6 5 10 10 10 6 0 10 -4 10 -10z m250 -105 c0 -8 -4 -15 -9 -15 -13 0 -22 16 -14 24 11 11 23 6 23 -9z m-35 -15 c3 -5 1 -10 -4 -10 -6 0 -11 5 -11 10 0 6 2 10 4 10 3 0 8 -4 11 -10z m-14 -35 c-1 -15 -24 -12 -29 3 -3 9 2 13 12 10 10 -1 17 -7 17 -13z"></path> <path d="M1364 1990 c48 -24 52 -25 30 -3 -9 10 -29 19 -43 20 -22 2 -20 0 13 -17z"></path> <path d="M1463 1994 c-17 -18 -16 -25 2 -18 10 4 15 0 15 -15 0 -12 -6 -21 -15 -21 -8 0 -15 5 -15 10 0 6 -4 10 -10 10 -5 0 -10 -7 -10 -15 0 -8 5 -15 10 -15 6 0 10 -7 10 -15 0 -8 5 -15 10 -15 6 0 10 7 10 15 0 9 7 18 15 21 8 4 15 12 15 20 0 8 4 14 10 14 5 0 7 6 4 14 -3 8 2 16 13 19 14 4 14 5 -4 6 -14 1 -23 -5 -23 -14 0 -19 -17 -20 -22 -1 -2 12 -5 12 -15 0z"></path> <path d="M1550 2000 c0 -5 5 -10 11 -10 5 0 7 5 4 10 -3 6 -8 10 -11 10 -2 0 -4 -4 -4 -10z"></path> <path d="M1330 1990 c-11 -21 -3 -48 19 -65 24 -18 25 -18 11 -1 -14 17 -13 18 6 12 14 -4 21 -2 21 7 0 9 -9 12 -23 9 -17 -3 -23 1 -27 19 -2 13 -5 22 -7 19z"></path> <path d="M1673 1965 c0 -8 4 -12 9 -9 5 3 6 10 3 15 -9 13 -12 11 -12 -6z"></path> <path d="M1626 1958 c3 -5 10 -6 15 -3 13 9 11 12 -6 12 -8 0 -12 -4 -9 -9z"></path> <path d="M1261 1943 c3 -19 -2 -33 -12 -33 -5 0 -7 6 -4 13 4 6 0 4 -8 -5 -8 -10 -18 -14 -22 -10 -5 4 -5 1 -1 -5 4 -7 2 -21 -3 -31 -8 -16 -4 -23 22 -43 18 -13 35 -23 40 -21 7 2 11 -23 7 -43 -1 -5 2 -7 6 -3 7 8 34 -9 34 -22 0 -3 -10 -6 -21 -5 -13 1 -27 13 -35 31 l-14 29 6 -35 c3 -19 9 -39 13 -43 10 -10 61 9 61 23 0 5 10 10 23 10 12 0 28 9 34 20 10 16 10 18 -1 14 -7 -3 -16 2 -20 11 -3 9 -10 13 -16 10 -5 -3 -10 -1 -10 5 0 6 -11 16 -25 22 -21 9 -23 14 -13 27 7 9 9 13 4 9 -15 -12 -45 35 -35 54 6 10 5 19 -1 23 -6 4 -10 3 -9 -2z m14 -73 c12 -13 14 -20 5 -20 -10 0 -10 -3 0 -15 7 -8 16 -13 20 -10 4 2 15 -4 25 -15 10 -11 21 -17 25 -15 4 3 10 -2 14 -10 3 -10 -1 -15 -13 -15 -11 0 -21 -5 -23 -12 -2 -6 -14 5 -27 25 -12 21 -26 35 -31 32 -4 -3 -14 3 -21 13 -13 15 -12 16 3 4 15 -12 17 -11 15 6 0 10 -8 19 -16 18 -8 -1 -17 7 -19 17 -5 23 21 22 43 -3z"></path> <path d="M1310 1800 c17 -33 17 -33 24 -22 3 5 -4 18 -16 28 -21 19 -21 19 -8 -6z"></path> <path d="M1700 1925 c0 -5 5 -17 10 -25 5 -8 10 -10 10 -5 0 6 -5 17 -10 25 -5 8 -10 11 -10 5z"></path> <path d="M1401 1909 c-1 -10 9 -19 24 -21 13 -3 22 -1 19 3 -3 5 -11 9 -19 9 -7 0 -16 6 -18 13 -4 7 -6 6 -6 -4z"></path> <path d="M1490 1912 c0 -5 7 -15 15 -22 8 -7 15 -9 15 -6 0 4 -7 14 -15 22 -8 9 -15 11 -15 6z"></path> <path d="M1918 1908 c5 -5 16 -8 23 -6 8 3 3 7 -10 11 -17 4 -21 3 -13 -5z"></path> <path d="M1360 1886 c0 -2 7 -6 15 -10 8 -3 15 -1 15 4 0 6 -7 10 -15 10 -8 0 -15 -2 -15 -4z"></path> <path d="M1727 1849 c4 -13 8 -18 11 -10 2 7 -1 18 -6 23 -8 8 -9 4 -5 -13z"></path> <path d="M1495 1850 c3 -5 8 -10 11 -10 2 0 4 5 4 10 0 6 -5 10 -11 10 -5 0 -7 -4 -4 -10z"></path> <path d="M1995 1842 c-12 -9 -48 -72 -43 -77 1 -1 18 17 36 41 30 40 33 55 7 36z"></path> <path d="M2320 1841 c0 -10 19 -25 25 -20 1 2 -3 10 -11 17 -8 7 -14 8 -14 3z"></path> <path d="M2395 1830 c2 -4 -4 -15 -14 -24 -15 -14 -20 -14 -25 -4 -3 7 -4 4 -1 -7 10 -48 16 -185 8 -185 -5 0 -8 15 -6 33 3 27 2 29 -7 12 l-10 -20 2 20 c1 11 -5 34 -15 51 -9 17 -13 34 -10 38 4 3 1 6 -5 6 -7 0 -12 8 -12 18 0 22 -39 46 -66 40 -10 -2 -23 -13 -29 -24 -6 -11 -17 -19 -25 -17 -12 4 -12 2 -2 -5 10 -7 10 -15 2 -38 -6 -16 -11 -30 -11 -31 0 -2 -8 -17 -18 -35 -12 -22 -24 -32 -37 -30 -18 3 -18 3 1 -11 22 -17 15 -33 -10 -24 -8 4 -18 6 -21 6 -4 0 -11 5 -15 13 -6 9 -9 9 -9 1 0 -7 10 -18 23 -24 29 -16 38 -31 26 -45 -7 -8 -6 -14 1 -19 8 -5 7 -12 -2 -23 -12 -15 -11 -16 5 -3 20 15 23 2 5 -18 -11 -11 -9 -11 9 0 12 7 19 17 16 22 -3 5 4 4 16 -2 19 -11 25 -8 22 12 0 4 4 7 10 7 5 0 8 4 4 9 -5 10 25 23 59 26 19 2 78 -48 70 -59 -2 -3 -1 -4 3 -1 3 3 12 0 20 -6 7 -6 13 -8 13 -4 0 4 6 2 14 -4 11 -9 20 -6 44 14 30 25 46 21 47 -10 0 -5 14 -10 32 -10 26 -1 30 2 21 13 -6 7 -14 9 -17 5 -3 -4 -13 -9 -21 -11 -11 -2 -10 2 3 12 11 8 26 12 35 9 10 -4 13 -2 8 5 -5 9 -1 9 16 3 13 -5 22 -13 21 -18 -1 -5 13 -8 32 -8 18 0 31 3 29 7 -2 3 4 4 14 1 10 -2 24 3 31 11 17 20 35 21 28 2 -4 -11 -1 -13 10 -9 12 5 14 3 8 -7 -6 -9 -1 -8 14 3 13 8 28 14 35 13 6 -2 8 -1 4 1 -14 8 4 32 20 26 14 -5 14 -3 -1 8 -14 12 -18 26 -15 64 3 42 6 50 23 50 18 0 20 -7 20 -65 0 -71 15 -94 58 -88 21 3 22 9 25 91 3 88 3 88 -30 119 -27 25 -38 29 -68 25 -19 -3 -29 -3 -22 0 6 2 12 9 12 14 0 4 -7 6 -16 2 -14 -5 -15 -3 -4 18 7 13 9 21 5 17 -4 -4 -14 0 -21 9 -10 14 -17 16 -41 7 -24 -8 -28 -15 -28 -47 1 -36 -7 -47 -20 -27 -3 5 -13 6 -22 3 -10 -4 -14 -2 -9 5 4 8 -3 8 -26 1 -41 -11 -47 -11 -28 1 9 6 10 10 3 10 -6 0 -15 -5 -18 -10 -4 -6 -11 -7 -17 -4 -6 4 -8 2 -4 -4 9 -15 -13 -27 -27 -13 -8 8 -8 11 2 11 7 0 10 4 7 9 -4 5 6 14 21 20 18 7 20 10 7 7 -16 -2 -25 3 -33 20 -6 13 -15 25 -21 25 -5 1 -16 2 -22 3 -7 1 -15 -2 -18 -6 -3 -4 -16 -5 -29 -1 -14 4 -18 8 -11 13 8 5 4 9 -9 13 -12 3 -19 2 -16 -3z m30 -170 c0 -127 -2 -140 -17 -140 -16 0 -18 13 -18 140 0 127 2 140 18 140 15 0 17 -13 17 -140z m-127 48 c16 -46 39 -107 51 -135 l21 -53 -21 0 c-13 0 -23 10 -30 30 -11 29 -13 30 -71 30 -57 0 -60 -1 -71 -30 -7 -18 -19 -30 -29 -30 -10 0 -18 2 -18 4 0 3 55 151 89 239 6 16 18 27 29 27 15 0 26 -19 50 -82z m210 59 c4 -20 -25 -34 -40 -19 -15 15 -1 44 19 40 10 -2 19 -11 21 -21z m233 -30 c-2 -46 -2 -48 18 -38 23 13 71 14 87 3 23 -15 34 -53 34 -116 0 -59 -2 -66 -20 -66 -17 0 -19 8 -22 78 l-3 77 -32 3 c-46 5 -66 -30 -61 -103 3 -47 0 -55 -14 -55 -16 0 -18 13 -18 136 0 123 2 135 17 132 14 -3 17 -12 14 -51z m-241 -122 c0 -78 -3 -95 -15 -95 -12 0 -15 17 -15 95 0 78 3 95 15 95 12 0 15 -17 15 -95z m160 80 c18 -22 -2 -44 -24 -26 -19 16 -61 10 -61 -9 0 -8 19 -22 45 -31 54 -20 70 -48 46 -84 -22 -33 -85 -38 -118 -8 -14 12 -15 19 -7 30 10 11 15 11 29 -2 25 -23 70 -20 70 5 0 11 -8 23 -17 26 -60 18 -83 35 -83 58 0 14 7 32 16 40 20 21 88 21 104 1z m25 -54 c3 -5 1 -12 -4 -15 -5 -3 -11 1 -15 9 -6 16 9 21 19 6z m-146 -35 c9 -11 9 -16 -1 -22 -7 -4 -10 -4 -6 1 4 4 3 14 -3 22 -6 7 -9 13 -6 13 2 0 10 -6 16 -14z m-129 -111 c0 -11 -29 -11 -33 -1 -4 10 1 12 14 9 10 -3 19 -7 19 -8z" class=""></path> <path d="M2226 1687 c-10 -29 -20 -58 -23 -64 -3 -10 9 -13 46 -13 l50 0 -19 46 c-11 25 -20 52 -20 59 0 34 -18 19 -34 -28z"></path> <path d="M1750 1821 c0 -5 5 -13 10 -16 6 -3 10 -2 10 4 0 5 -4 13 -10 16 -5 3 -10 2 -10 -4z"></path> <path d="M3000 1793 c-22 -27 -16 -272 8 -289 9 -6 23 -10 31 -9 9 2 20 4 24 4 5 1 5 6 1 13 -5 8 -2 9 10 5 12 -5 15 -3 9 6 -4 6 -8 22 -9 34 -1 26 22 20 31 -8 4 -10 11 -19 16 -19 5 0 9 -7 9 -16 0 -10 -6 -14 -15 -10 -22 8 -18 -2 6 -15 16 -8 20 -8 14 1 -5 8 4 10 33 5 24 -3 43 -1 47 5 4 7 13 4 23 -8 9 -10 13 -11 7 -3 -8 12 -6 13 7 8 25 -9 38 21 38 87 0 33 4 56 11 56 5 0 8 4 5 9 -4 5 2 7 13 4 16 -4 19 -14 19 -69 0 -52 4 -68 18 -79 21 -15 47 -6 62 21 8 14 10 14 25 0 8 -9 19 -16 23 -16 4 0 15 -7 24 -15 15 -14 22 -14 59 -1 36 12 42 12 37 0 -3 -7 -2 -13 2 -13 4 1 9 0 12 -1 24 -9 38 -6 33 7 -5 12 -7 12 -14 1 -7 -10 -9 -10 -9 0 0 7 11 17 24 23 16 8 22 17 18 27 -5 14 -4 15 10 2 8 -8 14 -20 11 -26 -2 -5 7 -19 19 -30 l23 -19 -19 23 c-28 33 -14 37 19 5 16 -16 25 -23 22 -16 -4 6 4 15 22 21 24 8 32 7 52 -11 12 -12 18 -15 12 -7 -10 13 -7 18 17 28 21 9 27 18 23 32 -3 12 0 20 7 20 6 0 14 -9 17 -20 3 -11 10 -20 15 -20 6 0 8 -6 5 -14 -4 -9 2 -12 21 -9 15 2 32 5 39 5 7 1 11 4 9 7 -2 3 2 11 9 18 10 9 17 7 34 -11 12 -12 18 -27 14 -31 -5 -5 -1 -4 8 3 9 6 18 9 21 6 3 -3 15 7 27 22 12 16 29 29 37 30 17 3 46 -35 37 -50 -4 -6 0 -5 9 2 11 8 18 9 23 3 3 -6 24 -9 45 -7 22 2 40 0 40 -6 0 -5 -4 -7 -9 -3 -5 3 -12 2 -15 -3 -3 -5 2 -9 11 -9 9 0 18 9 21 19 4 19 14 23 25 11 4 -3 2 -11 -3 -18 -7 -8 -4 -11 12 -10 12 1 24 8 26 16 3 11 1 11 -8 -1 -10 -13 -11 -13 -7 0 2 8 12 14 21 14 9 -1 16 2 16 7 0 16 26 10 48 -11 12 -12 22 -16 22 -9 0 8 4 8 15 -1 8 -7 15 -9 15 -5 0 4 7 2 15 -5 13 -11 14 -10 9 5 -5 12 -4 16 4 11 6 -3 14 -2 17 4 5 8 11 8 19 1 7 -6 16 -8 19 -4 4 3 7 1 7 -6 0 -9 4 -9 14 1 8 7 12 16 9 20 -2 4 4 5 14 1 16 -6 17 -5 3 12 -14 17 -14 17 8 4 12 -8 22 -17 22 -21 0 -5 7 -8 16 -8 8 0 12 -5 9 -10 -4 -7 3 -8 22 -4 15 4 38 8 51 8 12 0 22 4 22 10 0 5 3 6 6 3 4 -4 2 -13 -4 -20 -9 -11 -7 -13 8 -12 11 1 26 8 33 15 9 11 7 11 -8 0 -18 -14 -19 -14 -6 3 7 9 20 17 27 17 15 0 16 4 16 123 0 47 -4 83 -11 90 -7 7 -35 12 -64 12 -29 1 -63 4 -77 9 -19 5 -21 5 -10 -3 13 -9 13 -11 1 -11 -8 0 -27 -12 -42 -26 l-26 -25 2 50 c1 28 -3 51 -7 51 -5 0 -6 4 -3 10 3 5 -6 12 -20 16 -29 7 -55 -10 -55 -37 0 -17 -12 -23 -47 -22 -7 1 -13 -3 -13 -8 0 -5 -7 -9 -16 -9 -22 0 -65 -35 -56 -46 4 -5 3 -6 -2 -2 -5 4 -14 18 -20 30 -10 20 -20 23 -76 25 -37 1 -74 -4 -89 -11 -20 -11 -30 -11 -57 0 -28 12 -33 11 -46 -4 -8 -9 -18 -26 -22 -37 -6 -18 -10 -16 -29 18 -11 20 -28 37 -36 37 -24 0 -69 -43 -63 -60 3 -8 2 -12 -2 -8 -4 3 -8 13 -10 21 -3 24 -27 47 -48 47 -14 0 -18 5 -14 18 9 27 -27 56 -58 48 -32 -8 -53 -43 -35 -60 9 -8 10 -8 4 4 -5 8 -4 11 0 7 15 -13 14 -35 -2 -33 -15 3 -40 36 -27 36 4 0 -1 6 -11 14 -23 17 -42 11 -73 -21 -16 -16 -30 -22 -43 -18 -11 4 -26 2 -32 -4 -8 -6 -18 -6 -27 -1 -25 16 -100 12 -100 -5 0 -8 -5 -15 -11 -15 -7 0 -17 -6 -23 -13 -6 -7 -10 -10 -9 -8 6 10 -51 43 -83 48 -20 3 -38 13 -41 22 -12 41 -20 46 -81 48 -42 1 -64 -3 -73 -13 -6 -7 -15 -11 -20 -8 -5 3 -9 2 -8 -3 4 -22 -3 -33 -22 -33 -11 0 -18 4 -15 8 8 14 -23 52 -42 52 -10 0 -24 -8 -32 -17z m50 -65 l1 -63 57 63 c31 34 65 62 75 62 27 0 21 -12 -38 -70 -30 -30 -55 -57 -55 -61 0 -3 27 -36 61 -73 56 -60 59 -66 36 -66 -18 0 -40 18 -81 66 l-56 66 0 -66 c0 -59 -2 -66 -20 -66 -19 0 -20 7 -20 135 0 128 1 135 20 135 18 0 20 -7 20 -62z m211 10 l-2 -48 33 15 c67 28 108 -18 108 -122 0 -56 -2 -63 -20 -63 -18 0 -20 7 -20 64 0 82 -6 96 -40 96 -45 0 -62 -29 -58 -99 3 -53 1 -61 -14 -61 -16 0 -18 13 -18 136 0 123 2 135 17 132 14 -3 17 -12 14 -50z m576 36 c3 -8 1 -20 -5 -26 -15 -15 -43 8 -35 28 7 19 32 18 40 -2z m733 -119 c0 -113 -2 -135 -15 -135 -8 0 -15 7 -15 17 0 15 -1 15 -18 0 -23 -21 -81 -22 -109 -2 -34 24 -47 76 -29 118 8 20 23 40 34 46 30 16 83 13 104 -6 17 -15 18 -14 18 40 0 44 3 57 15 57 13 0 15 -22 15 -135z m-852 85 c-4 -27 -2 -30 24 -30 18 0 28 -5 28 -15 0 -10 -10 -15 -27 -15 l-28 0 3 -65 c4 -61 5 -65 28 -65 15 0 24 -6 24 -15 0 -20 -54 -20 -74 1 -11 11 -16 35 -16 80 0 55 -2 64 -18 64 -10 0 -19 7 -19 15 0 8 9 15 19 15 12 0 18 7 18 24 0 15 7 26 18 29 9 3 19 5 21 6 2 0 1 -12 -1 -29z m-523 -21 c-4 -5 -3 -15 2 -21 10 -18 11 -59 1 -80 -5 -10 -4 -19 2 -23 6 -4 7 -11 3 -18 -4 -7 -9 -4 -13 9 -4 10 -12 19 -19 19 -6 0 -12 5 -13 10 -1 6 -8 16 -15 23 -7 7 -13 19 -13 26 0 16 24 38 32 30 3 -3 9 7 12 21 4 14 11 23 16 20 6 -4 8 -11 5 -16z m377 -26 c17 -15 18 -15 18 0 0 10 7 17 15 17 12 0 15 -17 15 -95 0 -78 -3 -95 -15 -95 -8 0 -15 7 -15 17 0 15 -1 15 -18 0 -29 -27 -88 -22 -117 9 -35 38 -35 105 0 139 29 30 89 34 117 8z m263 -78 c0 -84 -2 -95 -17 -95 -16 0 -18 11 -18 95 0 84 2 95 18 95 15 0 17 -11 17 -95z m82 23 l20 -73 22 73 c29 98 49 98 77 0 l21 -73 17 60 c24 86 24 85 44 85 17 0 16 -7 -12 -95 -39 -122 -56 -127 -88 -22 l-22 72 -18 -60 c-10 -33 -18 -66 -18 -73 0 -8 -9 -12 -21 -10 -17 2 -27 21 -50 93 -16 50 -29 91 -29 93 0 1 9 2 19 2 15 0 23 -15 38 -72z m375 55 c17 -15 18 -15 18 0 0 10 7 17 15 17 12 0 15 -17 15 -95 0 -78 -3 -95 -15 -95 -8 0 -15 7 -15 17 0 15 -1 15 -18 0 -21 -19 -74 -22 -104 -6 -11 6 -26 26 -34 46 -18 42 -5 94 29 118 28 20 86 19 109 -2z m461 0 c19 -17 20 -17 14 0 -5 12 -1 17 13 17 19 0 20 -7 20 -95 0 -88 -1 -95 -20 -95 -13 0 -17 5 -14 14 4 11 -3 10 -31 -4 -67 -34 -130 8 -130 87 0 37 5 49 28 69 34 29 91 32 120 7z m-980 -65 c-7 -51 -10 -55 -25 -40 -8 8 -8 15 2 27 11 13 10 14 -5 9 -15 -6 -15 -4 -4 14 7 11 17 18 21 16 4 -3 8 0 8 5 0 6 2 11 4 11 2 0 2 -19 -1 -42z m-116 -20 c-3 -8 -6 -5 -6 6 -1 11 2 17 5 13 3 -3 4 -12 1 -19z m223 -22 c0 -3 -4 -8 -10 -11 -5 -3 -10 -1 -10 4 0 6 5 11 10 11 6 0 10 -2 10 -4z m255 -24 c-3 -3 -11 0 -18 7 -9 10 -8 11 6 5 10 -3 15 -9 12 -12z" class=""></path> <path d="M4427 1662 c-38 -41 -10 -112 44 -112 30 0 43 9 58 38 33 62 -56 126 -102 74z m66 -16 c9 -7 17 -17 17 -21 0 -4 -8 -4 -17 -1 -17 6 -17 5 -1 -7 19 -15 5 -53 -15 -40 -7 4 -19 8 -27 8 -8 0 -14 5 -13 10 6 41 9 51 18 57 13 10 17 10 38 -6z"></path> <path d="M3140 1669 c0 -5 5 -7 10 -4 6 3 10 8 10 11 0 2 -4 4 -10 4 -5 0 -10 -5 -10 -11z"></path> <path d="M3169 1623 c-13 -16 -12 -17 4 -4 16 13 21 21 13 21 -2 0 -10 -8 -17 -17z"></path> <path d="M3476 1658 c-49 -69 35 -147 94 -88 41 41 13 110 -45 110 -24 0 -39 -7 -49 -22z m69 -12 c17 -12 17 -16 5 -31 -12 -14 -12 -18 1 -26 10 -6 10 -9 2 -10 -7 -1 -19 -2 -25 -3 -15 -3 -38 13 -38 25 0 5 5 9 11 9 5 0 7 -4 4 -10 -4 -6 1 -7 11 -3 11 4 13 8 6 11 -7 2 -10 8 -7 13 4 5 -1 6 -9 3 -19 -7 -21 2 -3 21 15 18 19 18 42 1z"></path> <path d="M4197 1662 c-21 -23 -22 -61 -1 -90 31 -45 114 -14 114 43 0 55 -77 87 -113 47z m79 -27 c2 -13 -8 -19 -28 -17 -12 2 -29 -26 -20 -32 6 -3 15 1 22 9 16 19 27 19 27 0 0 -8 -3 -13 -5 -10 -3 3 -11 0 -17 -5 -7 -6 -20 -8 -29 -4 -18 7 -21 29 -6 39 6 3 10 12 10 18 0 8 -3 8 -9 -2 -6 -9 -11 -10 -15 -2 -4 6 7 14 26 19 36 10 41 8 44 -13z"></path> <path d="M4657 1662 c-22 -25 -21 -75 1 -95 57 -52 138 27 90 88 -23 30 -67 33 -91 7z m76 -19 c4 -3 2 -12 -5 -21 -10 -12 -10 -14 0 -8 7 4 12 1 12 -8 0 -20 -42 -44 -48 -27 -2 6 -8 9 -13 5 -5 -3 -9 1 -10 8 0 7 -2 21 -4 30 -6 30 31 41 68 21z"></path> <path d="M1894 1785 c-18 -14 -18 -14 4 -8 12 3 22 9 22 14 0 12 -3 11 -26 -6z"></path> <path d="M1760 1786 c0 -2 7 -7 16 -10 8 -3 12 -2 9 4 -6 10 -25 14 -25 6z"></path> <path d="M2660 1760 c0 -5 5 -10 11 -10 5 0 7 5 4 10 -3 6 -8 10 -11 10 -2 0 -4 -4 -4 -10z"></path> <path d="M1786 1743 c-6 -14 -5 -15 5 -6 7 7 10 15 7 18 -3 3 -9 -2 -12 -12z"></path> <path d="M1800 1725 c0 -5 5 -17 10 -25 5 -8 10 -10 10 -5 0 6 -5 17 -10 25 -5 8 -10 11 -10 5z"></path> <path d="M1370 1708 c0 -4 5 -10 10 -13 6 -3 10 -1 10 5 0 6 5 8 10 5 6 -3 10 -2 10 4 0 5 -9 9 -20 8 -11 -1 -20 -5 -20 -9z"></path> <path d="M1635 1671 c-75 -27 -124 -55 -181 -103 -54 -45 -128 -128 -121 -135 5 -4 63 52 69 66 5 14 109 95 158 123 25 14 66 32 93 39 26 7 47 17 47 21 0 11 -7 10 -65 -11z"></path> <path d="M2011 1643 c-1 -19 -10 -42 -21 -53 -12 -12 -18 -25 -15 -29 2 -5 -2 -14 -10 -21 -21 -17 -20 8 1 38 19 28 17 31 -31 39 -45 7 -45 5 10 -92 23 -42 40 -61 54 -62 12 -1 21 3 21 8 0 6 -5 7 -10 4 -6 -3 -13 2 -16 12 -3 10 -10 26 -15 35 -5 11 -5 19 1 23 6 3 10 -2 11 -12 0 -17 1 -17 7 0 7 15 10 16 26 4 21 -15 13 -42 -10 -33 -8 3 -14 1 -14 -4 0 -14 29 -12 43 3 18 19 17 47 -1 40 -10 -4 -13 -2 -8 5 3 6 1 14 -5 18 -8 4 -9 3 -5 -4 10 -16 -9 -15 -22 1 -8 10 -6 16 9 25 10 7 19 19 19 28 0 9 5 13 13 9 6 -4 5 -1 -4 7 -9 7 -18 20 -22 28 -3 8 -6 0 -6 -17z m-61 -48 c0 -8 -2 -15 -4 -15 -2 0 -6 7 -10 15 -3 8 -1 15 4 15 6 0 10 -7 10 -15z"></path> <path d="M1456 1642 c-3 -5 1 -9 9 -9 8 0 12 4 9 9 -3 4 -7 8 -9 8 -2 0 -6 -4 -9 -8z"></path> <path d="M1685 1620 c-3 -6 1 -7 9 -4 18 7 21 14 7 14 -6 0 -13 -4 -16 -10z"></path> <path d="M1730 1611 c0 -7 -5 -9 -12 -5 -7 4 -3 -4 10 -18 12 -13 19 -28 15 -33 -5 -4 -2 -5 5 -1 7 4 9 13 5 19 -4 7 -8 18 -9 25 -3 18 -14 29 -14 13z"></path> <path d="M2083 1515 c0 -8 4 -12 9 -9 5 3 6 10 3 15 -9 13 -12 11 -12 -6z"></path> <path d="M2224 1512 c4 -7 3 -12 -2 -12 -5 0 -9 -7 -9 -15 0 -20 4 -19 17 4 7 14 7 22 -2 27 -7 4 -8 3 -4 -4z"></path> <path d="M2965 1510 c3 -5 8 -10 11 -10 2 0 4 5 4 10 0 6 -5 10 -11 10 -5 0 -7 -4 -4 -10z"></path> <path d="M4003 1513 c4 -3 1 -13 -6 -22 -11 -14 -10 -14 5 -2 16 12 16 31 1 31 -4 0 -3 -3 0 -7z"></path> <path d="M1610 1500 c-9 -6 -10 -10 -3 -10 6 0 15 5 18 10 8 12 4 12 -15 0z"></path> <path d="M3775 1490 c-4 -6 -11 -7 -17 -4 -7 4 -8 2 -4 -5 6 -9 11 -9 22 0 14 11 18 19 10 19 -3 0 -8 -5 -11 -10z"></path> <path d="M1510 1460 c-9 -6 -10 -10 -3 -10 6 0 15 5 18 10 8 12 4 12 -15 0z"></path> <path d="M1820 1461 c0 -6 4 -13 10 -16 6 -3 7 1 4 9 -7 18 -14 21 -14 7z"></path> <path d="M1608 1443 c7 -3 16 -2 19 1 4 3 -2 6 -13 5 -11 0 -14 -3 -6 -6z"></path> <path d="M1516 1425 c-3 -8 -1 -15 4 -15 6 0 10 7 10 15 0 8 -2 15 -4 15 -2 0 -6 -7 -10 -15z"></path> <path d="M1580 1431 c0 -6 4 -13 10 -16 6 -3 7 1 4 9 -7 18 -14 21 -14 7z"></path> <path d="M1625 1420 c-3 -5 -1 -10 4 -10 6 0 11 5 11 10 0 6 -2 10 -4 10 -3 0 -8 -4 -11 -10z"></path> <path d="M1313 1405 c-3 -9 -3 -18 -1 -21 3 -3 8 4 11 16 6 23 -1 27 -10 5z"></path> <path d="M1464 1400 c-6 -6 -21 -12 -34 -15 -12 -2 -25 -7 -29 -10 -3 -4 6 -4 21 -1 33 6 88 35 68 36 -9 0 -21 -5 -26 -10z"></path> <path d="M1225 1380 c-3 -6 1 -7 9 -4 18 7 21 14 7 14 -6 0 -13 -4 -16 -10z"></path> <path d="M1931 1376 c-8 -10 -9 -16 -1 -21 6 -4 9 -1 8 6 -2 6 3 14 11 17 8 2 11 0 7 -6 -3 -6 -2 -13 3 -16 5 -4 8 2 7 11 -4 23 -20 27 -35 9z"></path> <path d="M1987 1379 c7 -7 15 -10 18 -7 3 3 -2 9 -12 12 -14 6 -15 5 -6 -5z"></path> <path d="M1370 1359 c0 -5 5 -7 10 -4 6 3 10 8 10 11 0 2 -4 4 -10 4 -5 0 -10 -5 -10 -11z"></path> <path d="M1711 1360 c0 -8 6 -24 14 -34 8 -11 15 -16 15 -10 0 5 5 2 11 -6 9 -13 10 -12 5 2 -3 10 2 22 12 27 14 9 14 10 2 11 -9 0 -21 -5 -28 -12 -9 -9 -14 -6 -21 13 -5 13 -10 17 -10 9z"></path> <path d="M1519 1342 c6 -2 11 -8 11 -13 0 -4 -8 -6 -17 -3 -15 5 -15 4 -4 -4 11 -7 21 -6 35 3 15 11 23 12 33 3 10 -8 12 -7 8 5 -4 10 -18 15 -42 14 -20 -1 -31 -3 -24 -5z"></path> <path d="M1770 1319 c0 -5 5 -7 10 -4 6 3 10 8 10 11 0 2 -4 4 -10 4 -5 0 -10 -5 -10 -11z"></path> <path d="M1794 1305 c-10 -8 -14 -14 -9 -15 15 0 40 18 34 24 -3 3 -14 -1 -25 -9z"></path> <path d="M1675 1299 c-4 -6 -5 -12 -2 -15 2 -3 7 2 10 11 7 17 1 20 -8 4z"></path> <path d="M1640 1288 c0 -9 5 -20 11 -23 17 -11 18 -2 3 19 -12 17 -14 17 -14 4z"></path> <path d="M1702 1284 c-12 -8 -20 -19 -17 -23 2 -5 -7 -21 -21 -36 -17 -18 -20 -26 -9 -21 9 3 19 6 21 6 2 0 4 7 4 15 0 9 7 18 16 22 12 4 13 8 3 13 -8 6 -3 13 17 24 16 8 24 15 19 16 -6 0 -21 -7 -33 -16z"></path> <path d="M1737 1276 c-16 -12 -16 -14 -2 -20 9 -3 13 -2 10 3 -3 5 -1 12 4 15 5 4 12 2 16 -4 3 -5 11 -10 16 -10 6 0 4 7 -5 15 -17 18 -16 18 -39 1z"></path> <path d="M1793 1256 c-7 -8 -8 -18 -2 -27 7 -11 9 -11 9 3 0 21 16 32 32 22 8 -5 6 -11 -6 -19 -14 -11 -14 -14 -2 -18 17 -7 28 16 20 38 -7 18 -35 19 -51 1z"></path> <path d="M1615 1230 c3 -5 8 -10 11 -10 2 0 4 5 4 10 0 6 -5 10 -11 10 -5 0 -7 -4 -4 -10z"></path>   </g> </svg>